<svg width="42" height="15" viewBox="0 0 42 15" fill="none" xmlns="http://www.w3.org/2000/svg">
<path d="M41 8.5C41.5523 8.5 42 8.05228 42 7.5C42 6.94772 41.5523 6.5 41 6.5V8.5ZM0.292893 6.79289C-0.0976311 7.18342 -0.0976311 7.81658 0.292893 8.20711L6.65685 14.5711C7.04738 14.9616 7.68054 14.9616 8.07107 14.5711C8.46159 14.1805 8.46159 13.5474 8.07107 13.1569L2.41421 7.5L8.07107 1.84315C8.46159 1.45262 8.46159 0.819457 8.07107 0.428932C7.68054 0.0384078 7.04738 0.0384078 6.65685 0.428932L0.292893 6.79289ZM41 6.5H1V8.5H41V6.5Z" fill="#2C302F"/>
</svg>
